<svg t="1708504826779" class="icon" viewBox="0 0 1038 1024" version="1.1" xmlns="http://www.w3.org/2000/svg" p-id="10392" data-spm-anchor-id="a313x.search_index.0.i17.cd423a81hpLNG9" width="200" height="200"><path d="M76.812975 76.812975h776.433857V404.825139h77.331982V60.204764c0-32.178409-25.431323-58.647745-57.609731-60.204764H60.204764C26.988343 0 0 26.988343 0 60.204764v897.881399c0 33.216422 26.988343 60.204764 60.204764 60.204765h414.686265v-75.774962H76.812975V76.812975z m132.865687 179.57628h513.297516V337.354283H209.678662V256.389255z m0 216.425748h389.254942v80.965027h-389.254942V472.815003z m0 211.754688H487.866194v80.965028H209.678662v-80.965028z m705.329954 90.307146c64.356817-62.799797 65.913837-166.082108 2.595033-230.438925-62.799797-64.356817-166.082108-65.913837-230.438925-2.595033s-65.913837 166.082108-2.595033 230.438925l2.595033 2.595033c-76.293969 25.950329-126.637608 100.168272-121.966549 180.614293 0 68.50887 102.244298 68.50887 243.933097 68.50887h86.155094c60.204764 0 101.206285-3.633046 125.080588-27.507349 11.937152-11.418145 18.165231-26.988343 17.646224-43.077547 6.228079-80.965028-45.153573-155.701977-123.004562-178.538267z m-181.652306-184.247339c17.646224-18.165231 42.039534-28.026356 67.470857-28.026356 50.862646 1.038013 91.34516 43.596553 89.78814 94.4592-1.038013 50.862646-43.596553 91.34516-94.4592 89.78814-50.862646-1.038013-91.34516-43.596553-89.788139-94.4592 0.519007-23.874303 10.380132-46.710593 27.507349-63.318804v1.55702z m122.485555 364.861632h-46.710593c-57.609731 2.076026-115.738469-1.038013-172.310187-10.380132 5.709072-99.649265 92.902179-121.447542 166.082108-121.447541 144.283832 0 164.525089 70.584896 166.601115 126.118601-37.887481 6.228079-75.774962 8.304105-113.662443 5.709072z" p-id="10393" data-spm-anchor-id="a313x.search_index.0.i18.cd423a81hpLNG9" class="selected"></path></svg>
