<svg t="1708504912327" class="icon" viewBox="0 0 1024 1024" version="1.1" xmlns="http://www.w3.org/2000/svg" p-id="12231" width="200" height="200"><path d="M963.764706 216.847059c-24.094118 0-42.164706 18.070588-42.164706 42.164706v602.352941c0 42.164706-30.117647 72.282353-72.282353 72.282353H240.941176c-42.164706 0-72.282353-30.117647-72.282352-72.282353v-132.517647c0-24.094118-18.070588-42.164706-42.164706-42.164706s-42.164706 18.070588-42.164706 42.164706v132.517647C84.329412 951.717647 150.588235 1024 240.941176 1024h602.352942c90.352941 0 162.635294-72.282353 162.635294-162.635294v-602.352941c0-18.070588-18.070588-42.164706-42.164706-42.164706zM126.494118 283.105882c24.094118 0 42.164706-18.070588 42.164706-42.164706V162.635294c0-42.164706 30.117647-72.282353 72.282352-72.282353h493.929412c24.094118 0 42.164706-18.070588 42.164706-42.164706s-18.070588-48.188235-42.164706-48.188235H240.941176C150.588235 0 84.329412 72.282353 84.329412 162.635294V240.941176c0 24.094118 18.070588 42.164706 42.164706 42.164706z" fill="#333333" p-id="12232"></path><path d="M722.823529 475.858824H343.341176c-24.094118 0-42.164706 18.070588-42.164705 42.164705 0 24.094118 18.070588 42.164706 42.164705 42.164706H722.823529c24.094118 0 42.164706-18.070588 42.164706-42.164706 0-24.094118-18.070588-42.164706-42.164706-42.164705zM301.176471 752.941176c0 24.094118 18.070588 42.164706 42.164705 42.164706h493.929412c24.094118 0 42.164706-18.070588 42.164706-42.164706 0-24.094118-18.070588-42.164706-42.164706-42.164705H343.341176c-24.094118 0-42.164706 18.070588-42.164705 42.164705zM48.188235 445.741176h150.588236c24.094118 0 42.164706-18.070588 42.164705-42.164705 0-24.094118-18.070588-42.164706-42.164705-42.164706H48.188235c-18.070588 0-42.164706 18.070588-42.164706 42.164706 0 24.094118 24.094118 42.164706 42.164706 42.164705zM240.941176 578.258824c0-24.094118-18.070588-42.164706-42.164705-42.164706H48.188235c-24.094118 0-42.164706 18.070588-42.164706 42.164706 0 24.094118 18.070588 42.164706 42.164706 42.164705h150.588236c24.094118 0 42.164706-18.070588 42.164705-42.164705zM1005.929412 12.047059c-18.070588-18.070588-42.164706-18.070588-54.211765 0L656.564706 301.176471c-18.070588 18.070588-18.070588 42.164706 0 54.211764 18.070588 18.070588 42.164706 18.070588 54.211765 0l289.129411-289.129411c24.094118-12.047059 24.094118-36.141176 6.02353-54.211765z" p-id="12233"></path></svg>
